# xmcd
#
# Track frame offsets:
#	150
#	22004
#	43596
#	66585
#	89889
#	112762
#	126953
#	157363
#	176279
#	207394
#	237693
#	266876
#
# Disc length: 3865 seconds
#
# Revision: 1
# Processed by: cddbd v1.5.1PL2 Copyright (c) Steve Scherf et al.
# Submitted via: audiograbber 1.83.01
#
DISCID=bc0f170c
DTITLE=Nick Perrin and Stewy von Wattenwyl - I Got The Right To Sing The Blues
DYEAR=2006
DGENRE=
TTITLE0=Do You Know What It Means To Miss
TTITLE1=Yardbird Suite
TTITLE2=I Got A Right To Sing The Blues
TTITLE3=Pensativa
TTITLE4=Someday In April
TTITLE5=Move
TTITLE6=Stardust
TTITLE7=That's Right
TTITLE8=In Love In Vain
TTITLE9=To Wisdom The Prize
TTITLE10=It Might As Well Be Spring
TTITLE11=Day Dream
EXTD=
EXTT0=
EXTT1=
EXTT2=
EXTT3=
EXTT4=
EXTT5=
EXTT6=
EXTT7=
EXTT8=
EXTT9=
EXTT10=
EXTT11=
PLAYORDER=
